<?xml version="1.0" encoding="UTF-8" standalone="no"?>
<svg
   xmlns:dc="http://purl.org/dc/elements/1.1/"
   xmlns:cc="http://creativecommons.org/ns#"
   xmlns:rdf="http://www.w3.org/1999/02/22-rdf-syntax-ns#"
   xmlns:svg="http://www.w3.org/2000/svg"
   xmlns="http://www.w3.org/2000/svg"
   viewBox="0 0 112.25333 168.37334"
   height="112.25333"
   width="112.25333"
   xml:space="preserve"
   id="svg2"
   version="1.1"><metadata
     id="metadata8"><rdf:RDF><cc:Work
         rdf:about=""><dc:format>image/svg+xml</dc:format><dc:type
           rdf:resource="http://purl.org/dc/dcmitype/StillImage" /></cc:Work></rdf:RDF></metadata><defs
     id="defs6" /><g
     transform="matrix(1.3333333,0,0,-1.3333333,0,168.37333)"
     id="g10"><g
       transform="scale(0.1)"
       id="g12"><path
         id="path14"
         style="fill:#ffffff;fill-opacity:1;fill-rule:nonzero;stroke:none"
         d="M 837.012,425.832 H 4.88672 V 1257.95 H 837.012 V 425.832" /><path
         id="path16"
         style="fill:#231f20;fill-opacity:1;fill-rule:nonzero;stroke:none"
         d="M 9.78125,430.727 H 832.117 V 1253.06 H 9.78125 V 430.727 Z M 837.012,425.832 v 4.895 z M 0,420.949 V 1262.84 H 841.895 V 420.949 H 0 v 0" /><path
         id="path18"
         style="fill:#231f20;fill-opacity:1;fill-rule:evenodd;stroke:none"
         d="m 78.3242,582.738 h 14.3086 c 10.2422,0 16.0272,-5.488 16.0272,-15.597 0,-14.317 -11.8319,-16.446 -23.1717,-16.446 H 78.3242 Z M 60.1367,497.504 h 18.1875 v 41.562 h 7.1641 c 16.6207,0 18.8087,-5.234 22.5317,-20.644 l 4.976,-20.918 h 18.473 l -6.504,27.215 c -2.5,10.246 -4.184,18.515 -19.106,21.476 v 0.332 c 11.028,2.364 21.289,7.118 21.289,22.411 0,18.996 -14.304,25.402 -34.5152,25.402 H 60.1367 v -96.836" /><path
         id="path20"
         style="fill:#231f20;fill-opacity:1;fill-rule:evenodd;stroke:none"
         d="m 177.051,497.504 h 63.879 v 12.469 h -45.692 v 31.457 h 42.125 v 12.527 h -42.125 v 27.91 h 44.473 v 12.473 h -62.66 v -96.836" /><path
         id="path22"
         style="fill:#231f20;fill-opacity:1;fill-rule:evenodd;stroke:none"
         d="m 287.871,497.504 h 16.637 v 74.824 h 0.328 l 43.391,-74.824 h 20.336 v 96.836 h -16.622 v -71.281 h -0.332 l -41.351,71.281 h -22.387 v -96.836" /><path
         id="path24"
         style="fill:#231f20;fill-opacity:1;fill-rule:evenodd;stroke:none"
         d="m 435.168,545.93 c 0,20.675 4.82,38.351 23.309,38.351 18.359,0 23.3,-17.676 23.3,-38.351 0,-20.625 -4.941,-38.328 -23.3,-38.328 -18.489,0 -23.309,17.703 -23.309,38.328 z m 23.309,-49.981 c 33.449,0 43.386,21.739 43.386,49.981 0,28.242 -9.937,50.011 -43.386,50.011 -33.575,0 -43.356,-21.769 -43.356,-50.011 0,-28.242 9.781,-49.981 43.356,-49.981" /><path
         id="path26"
         style="fill:#231f20;fill-opacity:1;fill-rule:evenodd;stroke:none"
         d="m 549.258,497.504 h 60.285 v 12.469 h -42.102 v 84.367 h -18.183 v -96.836" /><path
         id="path28"
         style="fill:#231f20;fill-opacity:1;fill-rule:nonzero;stroke:none"
         d="m 651.719,594.34 h 18.176 v -96.836 h -18.176 v 96.836 0" /><path
         id="path30"
         style="fill:#231f20;fill-opacity:1;fill-rule:evenodd;stroke:none"
         d="m 736.582,497.504 h 18.145 v 84.363 h 26.906 V 594.34 H 709.68 v -12.473 h 26.902 v -84.363" /><path
         id="path32"
         style="fill:#2b78c6;fill-opacity:1;fill-rule:evenodd;stroke:none"
         d="m 424.648,661.488 h 357.11 V 913.371 C 646.25,886.727 521.68,807.23 424.648,661.488" /><path
         id="path34"
         style="fill:#231f20;fill-opacity:1;fill-rule:evenodd;stroke:none"
         d="M 60.1367,661.488 H 366.996 c 85.965,158.387 261.649,278.239 414.762,301.071 V 1202.7 H 479.453 C 401.422,1149.44 333.98,1036.57 310.977,988.605 L 310.859,1202.7 H 60.1367 V 661.488" /></g></g></svg>