<svg xmlns="http://www.w3.org/2000/svg" xml:space="preserve" width="112.25333" height="112.25333" viewBox="0 0 112.25333 168.37334">
  <path d="M837.012 425.832H4.88672v832.118H837.012V425.832" style="fill:#fff;fill-opacity:1;fill-rule:nonzero;stroke:none" transform="matrix(.133 0 0 -.133 0 168.37333)"/>
    <path d="M9.78125 430.727H832.117v822.333H9.78125V430.727Zm827.23075-4.895v4.895zM0 420.949v841.891h841.895V420.949H0" style="fill:#231f20;fill-opacity:1;fill-rule:nonzero;stroke:none" transform="matrix(.133 0 0 -.133 0 168.37333)"/>
    <path d="M78.3242 582.738h14.3086c10.2422 0 16.0272-5.488 16.0272-15.597 0-14.317-11.8319-16.446-23.1717-16.446h-7.1641Zm-18.1875-85.234h18.1875v41.562h7.1641c16.6207 0 18.8087-5.234 22.5317-20.644l4.976-20.918h18.473l-6.504 27.215c-2.5 10.246-4.184 18.515-19.106 21.476v.332c11.028 2.364 21.289 7.118 21.289 22.411 0 18.996-14.304 25.402-34.5152 25.402H60.1367v-96.836m116.9143 0h63.879v12.469h-45.692v31.457h42.125v12.527h-42.125v27.91h44.473v12.473h-62.66v-96.836m110.82 0h16.637v74.824h.328l43.391-74.824h20.336v96.836h-16.622v-71.281h-.332l-41.351 71.281h-22.387v-96.836m147.297 48.426c0 20.675 4.82 38.351 23.309 38.351 18.359 0 23.3-17.676 23.3-38.351 0-20.625-4.941-38.328-23.3-38.328-18.489 0-23.309 17.703-23.309 38.328zm23.309-49.981c33.449 0 43.386 21.739 43.386 49.981s-9.937 50.011-43.386 50.011c-33.575 0-43.356-21.769-43.356-50.011 0-28.242 9.781-49.981 43.356-49.981m90.781 1.555h60.285v12.469h-42.102v84.367h-18.183v-96.836" style="fill:#231f20;fill-opacity:1;fill-rule:evenodd;stroke:none" transform="matrix(.133 0 0 -.133 0 168.37333)"/>
    <path d="M651.719 594.34h18.176v-96.836h-18.176v96.836" style="fill:#231f20;fill-opacity:1;fill-rule:nonzero;stroke:none" transform="matrix(.133 0 0 -.133 0 168.37333)"/>
    <path d="M736.582 497.504h18.145v84.363h26.906v12.473H709.68v-12.473h26.902v-84.363" style="fill:#231f20;fill-opacity:1;fill-rule:evenodd;stroke:none" transform="matrix(.133 0 0 -.133 0 168.37333)"/>
    <path d="M424.648 661.488h357.11v251.883C646.25 886.727 521.68 807.23 424.648 661.488" style="fill:#2b78c6;fill-opacity:1;fill-rule:evenodd;stroke:none" transform="matrix(.133 0 0 -.133 0 168.37333)"/>
    <path d="M60.1367 661.488H366.996c85.965 158.387 261.649 278.239 414.762 301.071V1202.7H479.453c-78.031-53.26-145.473-166.13-168.476-214.095l-.118 214.095H60.1367V661.488" style="fill:#231f20;fill-opacity:1;fill-rule:evenodd;stroke:none" transform="matrix(.133 0 0 -.133 0 168.37333)"/>
</svg>
